Ramp_Up_DEG
version=1
nRows=42
nColumns=18
inDegrees=yes
Units are S.I. units (second, meters, Newtons, ...)
Angles are in degrees.

endheader
time	pelvis_tilt	pelvis_list	pelvis_rotation	pelvis_tx	pelvis_ty	pelvis_tz	hip_flexion_r	hip_adduction_r	hip_rotation_r	knee_angle_r	ankle_angle_r	hip_flexion_l	hip_adduction_l	hip_rotation_l	knee_angle_l	ankle_angle_l	lumbar_extension
5.583	-10.16252551	-1.47546737	-6.28955296	2.48672206	1.22621373	0.09393994	18.458003	5.1961379	0	-32.41582809	39.57325746	44.93460127	-5.74342085	0	-37.90973995	22.99530118	-5.00000214
5.6	-10.26474261	-1.57762594	-6.2592774	2.4956129	1.22711219	0.09224986	17.87585784	5.14905277	0	-32.34936609	39.66227327	43.917381	-5.58814119	0	-37.21068791	24.88372112	-5.00000214
5.617	-10.33729636	-1.61247822	-6.06896194	2.50387401	1.22839878	0.09002049	17.54797449	4.97944671	0	-32.68174639	39.41153011	42.86902967	-5.29612727	0	-36.34822555	26.40567376	-5.00000214
5.633	-10.45055942	-1.64546814	-5.91832761	2.51148767	1.23026464	0.08764874	17.35899987	4.80235101	0	-33.04002595	38.77809251	42.03943736	-5.06732299	0	-35.64608205	27.20966025	-5.00000214
5.65	-10.88850067	-1.68261751	-5.70123642	2.51729504	1.23210851	0.08529019	17.79082531	4.67402737	0	-33.68161254	37.68730701	41.78720512	-4.88536649	0	-35.05657812	27.39275073	-5.00000214
5.667	-11.37752968	-1.60578719	-5.44056148	2.52292286	1.2342416	0.08249459	18.47986382	4.37630039	0	-34.64678507	36.25034737	41.52127358	-4.56107552	0	-34.25720305	27.28335633	-5.00000214
5.683	-11.76649648	-1.54880371	-5.10547247	2.52845098	1.23656332	0.07958854	19.09033954	4.06983811	0	-35.61334471	35.00945853	40.99602507	-4.21142181	0	-33.0786176	27.32365331	-5.00000214
5.7	-12.10765975	-1.57349756	-4.87891308	2.53400785	1.23886468	0.07685694	19.67052085	3.85306367	0	-36.57792665	33.60120455	40.39008365	-3.96233943	0	-31.90999768	27.39598715	-5.00000214
5.717	-12.33028199	-1.50241266	-4.84657972	2.54061321	1.2413219	0.07399446	20.00878309	3.48900532	0	-37.40376842	32.22983465	39.41934388	-3.62531172	0	-30.57658465	27.6454887	-5.00000214
5.733	-12.59942917	-1.44602844	-4.85370077	2.54659944	1.24328591	0.07153786	20.50700056	3.17806655	0	-38.39628652	30.76876958	38.61777764	-3.35748238	0	-29.41595304	27.85284332	-5.00000214
5.75	-12.7753288	-1.42021492	-4.81747476	2.55239599	1.24520894	0.06917228	20.9201112	2.90350595	0	-39.50622581	29.19748909	37.83978771	-3.12584577	0	-28.41688643	27.98837974	-5.00000214
5.767	-12.92044063	-1.39755922	-4.70988217	2.55755756	1.24684803	0.06696688	21.34873982	2.63696915	0	-40.58634251	28.03204231	37.16953536	-2.89664567	0	-27.52980315	28.08991025	-5.00000214
5.783	-13.01100322	-1.36500632	-4.64592734	2.56318594	1.24816342	0.06485464	21.72639811	2.37052847	0	-41.66069473	26.95375676	36.50131561	-2.67350784	0	-26.81516134	28.34642256	-5.00000214
5.8	-13.06824421	-1.31673876	-4.61561188	2.56859773	1.24909601	0.0626361	22.24642168	2.08286786	0	-43.03833674	25.81268089	35.92626135	-2.43941337	0	-26.30339071	28.74344224	-5.00000214
5.817	-13.18130378	-1.26961271	-4.61604406	2.57355935	1.24958148	0.06051696	22.91713837	1.81080649	0	-44.52464744	24.55919795	35.52902516	-2.22415551	0	-25.97723697	29.1612958	-5.00000214
5.833	-13.29402193	-1.15621332	-4.64242791	2.57825842	1.25008348	0.05783156	23.80017471	1.42890052	0	-46.26686311	23.13870194	35.1408857	-1.89796982	0	-25.65405235	29.52215188	-5.00000214
5.85	-13.33813803	-1.07578658	-4.63308585	2.58297937	1.25037505	0.05543538	24.73104206	1.1270068	0	-48.18783741	21.63451384	34.86359713	-1.61911268	0	-25.73407732	29.88426172	-5.00000214
5.867	-13.19537845	-0.92764826	-4.66918664	2.58864817	1.25089653	0.05310064	25.38271078	0.72451898	0	-50.02600151	20.350661	34.30863145	-1.28272631	0	-25.80994339	30.30605658	-5.00000214
5.883	-13.17244253	-0.85413214	-4.66331861	2.59304601	1.25103464	0.05101426	26.37048864	0.43688523	0	-52.06932276	18.89387928	34.13588427	-1.03967036	0	-26.14956518	30.68860351	-5.00000214
5.9	-13.17612933	-0.73658253	-4.87437487	2.59738327	1.25126204	0.04886167	27.53531891	0.08801728	0	-54.2462532	16.93456268	33.94558233	-0.80969919	0	-26.41891857	31.13115572	-5.00000214
5.917	-13.30751379	-0.5980818	-5.21403868	2.60054719	1.25118436	0.0469434	29.14329751	-0.2592165	0	-56.72057479	14.76757446	33.90301208	-0.63014277	0	-26.53568889	31.5173276	-5.00000214
5.933	-13.19628901	-0.44978179	-5.32895861	2.60525079	1.25131142	0.04477571	30.53678882	-0.66343981	0	-59.3637813	12.55810821	33.4489139	-0.32126439	0	-26.52134968	32.0989184	-5.00000214
5.95	-13.09152287	-0.2717244	-5.49786715	2.60959609	1.25141307	0.04254817	32.07051302	-1.08740064	0	-62.02457855	10.34461177	33.03021191	0.0002525	0	-26.53331313	32.62880201	-5.00000214
5.967	-13.11910556	-0.0880301	-5.74240515	2.61261033	1.25115938	0.04055134	34.00829816	-1.45683109	0	-64.81016675	8.00918834	32.90353786	0.26502864	0	-26.6501044	33.05907815	-5.00000214
5.983	-13.11469065	0.09743371	-6.01742947	2.61599457	1.25108874	0.03862769	35.85285582	-1.80993321	0	-67.38534788	5.93835744	32.66949938	0.52372934	0	-26.70204002	33.45015553	-5.00000214
6	-13.11255836	0.23669925	-6.12161011	2.61899741	1.25078822	0.03694224	37.63734328	-2.08647528	0	-69.75980488	4.27706462	32.51331437	0.77612099	0	-26.85922671	33.79464315	-5.00000214
6.017	-13.1047724	0.36797627	-6.18813171	2.62159732	1.25045076	0.03538368	39.31344209	-2.32763171	0	-71.78113612	4.1486721	32.25364011	1.02700296	0	-26.7015458	34.10931445	-5.00000214
6.033	-13.02686465	0.50330403	-6.28049814	2.6252064	1.25033207	0.0338787	40.65454967	-2.56091109	0	-73.29703973	4.77622184	31.77947955	1.2962734	0	-26.27351486	34.82815427	-5.00000214
6.05	-12.98583943	0.60990508	-6.35391893	2.62839194	1.25026828	0.03251232	41.8928987	-2.69299263	0	-74.20810207	7.37203851	31.47185679	1.51587899	0	-26.11330045	35.46013123	-5.00000214
6.067	-13.0317356	0.65388514	-6.42564318	2.63100306	1.25045592	0.03160094	43.12527711	-2.66567015	0	-74.51752532	9.94655309	31.38369378	1.61495431	0	-26.28353215	35.46387215	-5.00000214
6.083	-13.06491173	0.63559719	-6.47309323	2.6335083	1.25103023	0.0310482	43.97843808	-2.53664139	0	-73.92527336	12.87727323	31.31824794	1.65554958	0	-26.63176189	35.24885014	-5.00000214
6.1	-13.09005408	0.65478613	-6.60262436	2.63578288	1.2514747	0.03052458	44.72003014	-2.43941275	0	-72.73159073	15.95871962	31.15825619	1.70159518	0	-26.63838946	35.45899659	-5.00000214
6.117	-13.18547182	0.62374905	-6.7293895	2.63764501	1.25186198	0.03026064	45.3746085	-2.23537148	0	-70.91312699	18.96910894	31.16681906	1.66390682	0	-26.81063334	35.41744275	-5.00000214
6.133	-13.19178204	0.6432514	-6.81524316	2.6403163	1.2525005	0.02987428	45.58988422	-2.14464831	0	-68.43053193	21.94310678	30.9116506	1.71983176	0	-26.65075625	35.59824377	-5.00000214
6.15	-13.26015072	0.67290534	-6.97172142	2.64259403	1.25283517	0.02976186	45.76492027	-1.99922515	0	-65.5777048	24.7583048	30.74555189	1.73080817	0	-26.42623508	35.89546827	-5.00000214
6.167	-13.27512168	0.6466509	-7.00579623	2.6455398	1.25375358	0.02989135	45.48000339	-1.80678729	0	-62.12700913	27.27358013	30.45262914	1.70755373	0	-26.24312256	35.86756689	-5.00000214
6.183	-13.33189148	0.51002522	-7.03723966	2.647786	1.2546298	0.03064844	45.02336097	-1.41229609	0	-58.32155233	29.02693379	30.30234145	1.50200306	0	-26.23624579	35.75419492	-5.00000214
6.2	-13.31670884	0.4060697	-6.95930658	2.65041477	1.25533434	0.03119806	44.35642402	-1.11006846	0	-54.60036027	30.28864285	29.98580947	1.39316836	0	-26.04423464	35.82108775	-5.00000214
6.217	-13.32607906	0.25887421	-6.71672416	2.65351114	1.255902	0.03205527	43.53298351	-0.80714258	0	-51.07534537	30.90343386	29.66652701	1.25387673	0	-25.81735056	35.92817319	-5.00000214
6.233	-13.31937249	0.20662219	-6.49806622	2.65653837	1.25609728	0.03279857	42.69362089	-0.70343682	0	-48.25780826	30.68147382	29.48232822	1.21092592	0	-25.87760547	36.0591043	-5.00000214
6.25	-13.18416989	0.1671265	-6.26904392	2.65957592	1.25638121	0.03348236	41.6137971	-0.59806321	0	-45.82062862	30.33053733	29.12228737	1.19814253	0	-25.85610656	36.1951399	-5.00000214
6.267	-12.81293757	0.21436195	-6.05743965	2.6640247	1.25695637	0.03411592	40.08016556	-0.76371864	0	-43.85421803	30.03192806	28.18791151	1.31182219	0	-25.37736714	36.47487633	-5.00000214
